# xmcd CD database file
#
# Track frame offsets:
#	150
#	15264
#	37650
#	51860
#	67316
#	82637
#	99089
#	113776
#	125442
#	138884
#
# Disc length: 2078 seconds
#
# Revision: 0
# Processed by: cddbd v1.5PL3 Copyright (c) Steve Scherf et al.
# Submitted via: CDex 1.51
#
DISCID=6d081c0a
DTITLE=Barry Amato - Tomorrowland
DYEAR=1900
DGENRE=Country
TTITLE0=It aint true love never dies
TTITLE1=Distant thunder
TTITLE2=Come sunset
TTITLE3=Right in the middle off My broken heart
TTITLE4=Tomorrowland
TTITLE5=Lets just say
TTITLE6=Like ive never been loved before
TTITLE7=Working for a living
TTITLE8=Heartbreak school 
TTITLE9=The way love goes
EXTD=
EXTT0=
EXTT1=
EXTT2=
EXTT3=
EXTT4=
EXTT5=
EXTT6=
EXTT7=
EXTT8=
EXTT9=
PLAYORDER=
